<svg xmlns="http://www.w3.org/2000/svg" width="22.667" height="20.583" viewBox="320.15 45.917 22.667 20.583"><g data-name="ic cart"><g data-name="Group"><g data-name="Group 10"><path d="M335.126 63.5a1.563 1.563 0 1 1 3.126 0 1.563 1.563 0 0 1-3.126 0h0Z" stroke-linejoin="round" stroke-linecap="round" stroke-width="2" stroke="#fff" fill="transparent" data-name="Stroke 85"/><path d="M326.79 63.5a1.563 1.563 0 1 1 3.125 0 1.563 1.563 0 0 1-3.126 0h0Z" stroke-linejoin="round" stroke-linecap="round" stroke-width="2" stroke="#fff" fill="transparent" data-name="Stroke 86"/><path d="M321.579 47.347h2.657l2.23 11.37c.249 1.266 1.34 2.178 2.606 2.178h10.223" stroke-linejoin="round" stroke-linecap="round" stroke-width="2" stroke="#fff" fill="transparent" data-name="Stroke 87"/><path d="M324.705 49.432h16.674l-.724 5.697a1.843 1.843 0 0 1-1.838 1.597h-12.722" stroke-linejoin="round" stroke-linecap="round" stroke-width="2" stroke="#fff" fill="transparent" data-name="Stroke 88"/></g></g></g></svg>